<svg width="32" height="32" viewBox="0 0 32 32" fill="none" xmlns="http://www.w3.org/2000/svg">
<path d="M16.6666 28H11.4319C10.4765 27.9999 9.55258 27.6579 8.82745 27.0357C8.10232 26.4135 7.62384 25.5523 7.47861 24.608L5.80528 13.7386C5.74684 13.3586 5.77126 12.9704 5.87688 12.6007C5.98251 12.231 6.16683 11.8886 6.4172 11.5968C6.66758 11.305 6.9781 11.0708 7.32747 10.9102C7.67683 10.7497 8.05679 10.6666 8.44128 10.6666H23.5599C23.9444 10.6666 24.3244 10.7497 24.6738 10.9102C25.0231 11.0708 25.3336 11.305 25.584 11.5968C25.8344 11.8886 26.0187 12.231 26.1243 12.6007C26.23 12.9704 26.2544 13.3586 26.1959 13.7386L25.8453 16.016" stroke="black" stroke-width="2" stroke-linecap="round" stroke-linejoin="round"/>
<path d="M21.3334 25.3334H29.3334" stroke="black" stroke-width="2" stroke-linecap="round" stroke-linejoin="round"/>
<path d="M25.3334 21.3334V29.3334" stroke="black" stroke-width="2" stroke-linecap="round" stroke-linejoin="round"/>
<path d="M12 14.6667V8C12 6.93913 12.4214 5.92172 13.1716 5.17157C13.9217 4.42143 14.9391 4 16 4C17.0609 4 18.0783 4.42143 18.8284 5.17157C19.5786 5.92172 20 6.93913 20 8V14.6667" stroke="black" stroke-width="2" stroke-linecap="round" stroke-linejoin="round"/>
</svg>
