<svg width="90" height="90" viewBox="0 0 90 90" fill="none" xmlns="http://www.w3.org/2000/svg">
<path d="M59 75C67.8366 75 75 67.8366 75 59C75 50.1634 67.8366 43 59 43C50.1634 43 43 50.1634 43 59C43 67.8366 50.1634 75 59 75Z" fill="#97CF26"/>
<path d="M29 42C36.1797 42 42 36.1797 42 29C42 21.8203 36.1797 16 29 16C21.8203 16 16 21.8203 16 29C16 36.1797 21.8203 42 29 42Z" fill="#00AAFF"/>
<path d="M59 39C64.5228 39 69 34.5228 69 29C69 23.4772 64.5228 19 59 19C53.4772 19 49 23.4772 49 29C49 34.5228 53.4772 39 59 39Z" fill="#FF6163"/>
<path d="M28.5 66C32.6421 66 36 62.6421 36 58.5C36 54.3579 32.6421 51 28.5 51C24.3579 51 21 54.3579 21 58.5C21 62.6421 24.3579 66 28.5 66Z" fill="#A169F7"/>
</svg>
